<?xml version="1.0" encoding="UTF-8"?>
<!DOCTYPE svg PUBLIC "-//W3C//DTD SVG 1.1//EN" "http://www.w3.org/Graphics/SVG/1.1/DTD/svg11.dtd">
<svg xmlns="http://www.w3.org/2000/svg" xmlns:xlink="http://www.w3.org/1999/xlink" version="1.1" width="483px" height="254px" viewBox="-0.5 -0.5 483 254">
    <defs/>
    <g>
        <a xlink:href="https://w3id.org/emmo/domain/electrochemistry#electrochemistry_6f2c88c9_5c04_4953_a298_032cc3ab9b77" target="_blank">
            <rect x="180" y="0" width="120" height="60" rx="9" ry="9" fill="currentColor" stroke="currentColor" pointer-events="all" transform="translate(2,3)" opacity="0.25"/>
            <rect x="180" y="0" width="120" height="60" rx="9" ry="9" fill="currentColor" stroke="currentColor" pointer-events="all"/>
            <text x="240" y="34" fill="currentColor" font-family="Verdana" font-size="12px" text-anchor="middle">ElectrochemicalCell</text>
        </a>
        <rect x="360" y="190" width="120" height="60" rx="9" ry="9" fill="currentColor" stroke="currentColor" pointer-events="all" transform="translate(2,3)" opacity="0.25"/>
        <rect x="360" y="190" width="120" height="60" rx="9" ry="9" fill="currentColor" stroke="currentColor" pointer-events="all"/>
        <text x="420" y="224" fill="currentColor" font-family="Verdana" font-size="12px" text-anchor="middle">PositiveElectrode</text>
        <rect x="180" y="190" width="120" height="60" rx="9" ry="9" fill="currentColor" stroke="currentColor" pointer-events="all" transform="translate(2,3)" opacity="0.25"/>
        <rect x="180" y="190" width="120" height="60" rx="9" ry="9" fill="currentColor" stroke="currentColor" pointer-events="all"/>
        <text x="240" y="224" fill="currentColor" font-family="Verdana" font-size="12px" text-anchor="middle">Electrolyte</text>
        <path d="M 240 60 L 414.84 186.27" fill="none" stroke="currentColor" stroke-miterlimit="10" pointer-events="stroke"/>
        <path d="M 419.09 189.35 L 411.37 188.08 L 414.84 186.27 L 415.47 182.41 Z" fill="currentColor" stroke="currentColor" stroke-miterlimit="10" pointer-events="all"/>
        <text x="330" y="128" fill="currentColor" font-family="Helvetica" font-size="11px" text-anchor="middle">hasPositiveElectrode</text>
        <rect x="0" y="190" width="120" height="60" rx="9" ry="9" fill="currentColor" stroke="currentColor" pointer-events="all" transform="translate(2,3)" opacity="0.25"/>
        <rect x="0" y="190" width="120" height="60" rx="9" ry="9" fill="currentColor" stroke="currentColor" pointer-events="all"/>
        <text x="60" y="224" fill="currentColor" font-family="Verdana" font-size="12px" text-anchor="middle">NegativeElectrode</text>
        <path d="M 240 60 L 65.16 186.27" fill="none" stroke="currentColor" stroke-miterlimit="10" pointer-events="stroke"/>
        <path d="M 60.91 189.35 L 64.53 182.41 L 65.16 186.27 L 68.63 188.08 Z" fill="currentColor" stroke="currentColor" stroke-miterlimit="10" pointer-events="all"/>
        <text x="150" y="128" fill="currentColor" font-family="Helvetica" font-size="11px" text-anchor="middle">hasNegativeElectrode</text>
        <path d="M 240 60 L 240 183.63" fill="none" stroke="currentColor" stroke-miterlimit="10" pointer-events="stroke"/>
        <path d="M 240 188.88 L 236.5 181.88 L 240 183.63 L 243.5 181.88 Z" fill="currentColor" stroke="currentColor" stroke-miterlimit="10" pointer-events="all"/>
        <text x="240" y="153" fill="currentColor" font-family="Helvetica" font-size="11px" text-anchor="middle">hasElectrolyte</text>
    </g>
    <switch>
        <g requiredFeatures="http://www.w3.org/TR/SVG11/feature#Extensibility"/>
        <a transform="translate(0,-5)" xlink:href="https://www.drawio.com/doc/faq/svg-export-text-problems" target="_blank">
            <text text-anchor="middle" font-size="10px" x="50%" y="100%">Text is not SVG - cannot display</text>
        </a>
    </switch>
</svg>
